<svg xmlns="http://www.w3.org/2000/svg" xmlns:xlink="http://www.w3.org/1999/xlink" x="0px" y="0px" width="24px" height="24px" viewBox="0 0 24 24" stroke-width="2"><g stroke-width="2" transform="translate(0, 0)"><path fill="none" stroke="#9a9a9a" stroke-width="2" stroke-linecap="square" stroke-miterlimit="10" d="M12,12L12,12 c-2.761,0-5-2.239-5-5V6c0-2.761,2.239-5,5-5h0c2.761,0,5,2.239,5,5v1C17,9.761,14.761,12,12,12z" stroke-linejoin="miter"></path> <path data-color="color-2" fill="none" stroke="#9a9a9a" stroke-width="2" stroke-linecap="square" stroke-miterlimit="10" d="M22,20.908 c0-1.8-1.197-3.383-2.934-3.856C17.172,16.535,14.586,16,12,16s-5.172,0.535-7.066,1.052C3.197,17.525,2,19.108,2,20.908V23h20 V20.908z" stroke-linejoin="miter"></path></g></svg>